<svg width="39" height="39" viewBox="0 0 39 39" fill="none" xmlns="http://www.w3.org/2000/svg">
<path d="M9.23231 12.7435C9.17272 12.7435 9.11151 12.7295 9.05515 12.6982C8.85546 12.592 8.77334 12.3309 8.87158 12.1151C9.52379 10.6843 10.4949 9.73745 11.7606 9.30056C14.355 8.40589 17.3439 9.96546 18.199 10.465C20.2684 11.6747 24.7485 11.6765 26.4604 9.20308C27.1947 8.14132 27.2849 6.55738 26.6955 5.07092C25.9612 3.21718 24.4152 1.96918 22.5632 1.73072C19.6742 1.35823 16.9316 1.98484 14.4097 3.59663C14.2181 3.71847 13.9717 3.65059 13.859 3.44346C13.7463 3.23633 13.8091 2.97002 14.0007 2.84817C16.6788 1.13717 19.592 0.472269 22.6598 0.867384C24.8017 1.14414 26.5876 2.58709 27.4363 4.72976C28.1385 6.50168 28.0128 8.41634 27.1062 9.72526C26.2011 11.0342 24.6004 11.8714 22.597 12.0855C20.8659 12.27 19.0348 11.9428 17.8174 11.2326C17.0331 10.7748 14.2986 9.34233 12.007 10.1326C10.9587 10.4946 10.147 11.2918 9.59465 12.5015C9.52379 12.6547 9.38208 12.7452 9.23392 12.7452L9.23231 12.7435Z" fill="#282315"/>
<path d="M4.78526 9.56142C4.70957 9.56142 4.6339 9.5388 4.56627 9.4918C4.37946 9.36126 4.32632 9.09147 4.44871 8.88956C4.803 8.30124 5.21686 7.74599 5.67904 7.23599C6.71775 6.09242 7.84989 5.1612 9.04481 4.47019C9.24128 4.35705 9.48443 4.43538 9.58911 4.64773C9.69378 4.86008 9.62131 5.12291 9.42484 5.23605C8.30239 5.88703 7.23631 6.76429 6.25397 7.8452C5.82882 8.31342 5.44876 8.82341 5.12507 9.363C5.04777 9.4918 4.91893 9.56142 4.78687 9.56142H4.78526Z" fill="#282315"/>
<path d="M5.10989 29.4511C4.98911 29.4511 4.86833 29.392 4.78942 29.2806C2.16286 25.5592 0.494491 21.2234 0.0935003 17.0755C-0.365465 12.3254 0.871319 8.18631 3.6702 5.1072C5.98918 2.55549 8.71559 0.881033 11.5563 0.264863C14.0364 -0.27298 16.5309 0.0142201 18.5809 1.0725C18.7822 1.17694 18.866 1.43628 18.771 1.65212C18.6743 1.86969 18.4344 1.9602 18.2347 1.85751C16.3392 0.879292 14.0251 0.616462 11.7142 1.11775C9.03284 1.69911 6.44977 3.28828 4.24513 5.7164C1.62017 8.60579 0.46228 12.5012 0.895478 16.985C1.28198 20.9762 2.89237 25.1554 5.43036 28.7532C5.56564 28.9446 5.53182 29.2179 5.35468 29.3624C5.28221 29.4233 5.19525 29.4511 5.11151 29.4511H5.10989Z" fill="#282315"/>
<path d="M7.53276 38.4153C7.4764 38.4153 7.42164 38.4136 7.36689 38.4101C7.2139 38.3996 7.08025 38.297 7.02067 38.1455C6.96108 37.9941 6.98683 37.8183 7.08507 37.693C7.26382 37.4684 7.81942 36.579 8.02395 35.4929C8.28805 34.0934 7.90157 32.8733 6.87413 31.8637C6.70987 31.7018 6.69696 31.4268 6.84673 31.2493C6.9965 31.0717 7.25095 31.0578 7.41521 31.2197C9.58925 33.3571 8.94028 35.9994 8.19949 37.451C10.5781 36.8366 14.4994 33.3241 16.0985 30.1875C16.2064 29.9769 16.4512 29.9003 16.6461 30.0169C16.8409 30.1336 16.9118 30.3981 16.8039 30.6087C15.0244 34.0986 10.2801 38.4171 7.52954 38.4171L7.53276 38.4153Z" fill="#282315"/>
<path d="M23.9614 30.0135C23.7762 30.0135 23.6103 29.8743 23.5684 29.6707C23.2608 28.1511 22.3993 25.629 21.3928 25.3261C21.0304 25.2182 20.6198 25.4201 20.1737 25.9301C18.428 27.9248 16.9947 28.1929 16.0993 28.0676C15.2829 27.9527 14.5807 27.4531 14.2184 26.7343C13.0895 24.4872 12.7111 24.1617 12.6209 24.1164C12.5259 24.0851 12.17 24.1495 11.9574 24.1878C11.3921 24.2887 10.8076 24.3932 10.5676 23.918C10.463 23.7091 10.4726 23.4393 10.4887 22.992C10.5177 22.1826 10.5628 20.959 9.84134 20.3358C8.43063 19.1157 7.84281 16.1967 8.13591 14.8251C8.18583 14.5901 8.40162 14.4439 8.61903 14.4996C8.83643 14.5536 8.97012 14.7868 8.92019 15.0218C8.68346 16.1306 9.23903 18.7014 10.3438 19.657C11.3825 20.5552 11.3261 22.1025 11.2923 23.0268C11.2875 23.1521 11.2826 23.2983 11.2826 23.4062C11.4308 23.401 11.6675 23.3575 11.8254 23.3297C12.2296 23.2566 12.6096 23.1887 12.8963 23.3001C13.2763 23.4463 13.7675 24.0172 14.9254 26.3217C15.109 26.689 15.5422 27.1137 16.2024 27.2077C17.2041 27.3487 18.4071 26.6838 19.5859 25.3348C20.2526 24.5724 20.9322 24.287 21.6053 24.4906C22.4025 24.7308 23.1094 25.6638 23.7069 27.2652C24.1272 28.3931 24.3414 29.4444 24.3511 29.4879C24.3978 29.7229 24.2609 29.9544 24.0435 30.0048C24.0145 30.0118 23.9855 30.0153 23.9565 30.0153L23.9614 30.0135Z" fill="#282315"/>
<path d="M25.6621 38.9985C24.9873 38.9985 24.4559 38.7165 24.1547 38.5564C24.1467 38.5529 24.1402 38.5477 24.1322 38.5442C22.5089 37.5434 23.0871 35.3119 23.8584 33.6166C24.8891 31.3486 26.7217 29.3138 28.06 27.8291C28.6751 27.145 29.4256 26.313 29.6076 25.9336C29.5818 25.9301 29.5496 25.9266 29.5109 25.9249C27.2209 25.7961 24.1564 23.6726 24.0259 23.582C23.8391 23.4515 23.786 23.1817 23.9068 22.9798C24.0275 22.7779 24.2771 22.7205 24.4639 22.851C24.4945 22.8719 27.4786 24.9397 29.5528 25.0563C30.0085 25.0824 30.2952 25.2513 30.4079 25.5611C30.6431 26.2103 29.9731 26.9553 28.6365 28.4366C27.3369 29.8795 25.5558 31.8568 24.5815 34.0012C23.6861 35.9716 23.6652 37.244 24.5219 37.7836C25.0082 38.0412 25.5864 38.2866 26.3062 38.0046C27.4206 37.5642 28.5302 36.0047 29.6043 33.3642C30.8234 30.3704 32.408 26.6438 33.9412 23.039C35.5161 19.3367 37.0041 15.8399 37.7321 13.974C38.9431 10.867 37.9382 10.3344 32.3629 7.38235L31.6222 6.98897C31.4225 6.8828 31.3403 6.62171 31.4386 6.40587C31.5368 6.19004 31.7784 6.10127 31.9781 6.20745L32.7189 6.60082C38.2973 9.55635 39.9818 10.4475 38.4761 14.3117C37.7433 16.1915 36.2537 19.6936 34.6755 23.4028C33.144 27.0041 31.5594 30.7272 30.3435 33.714C29.1615 36.6191 27.9327 38.2901 26.5848 38.8209C26.2579 38.9497 25.9487 39.0002 25.6653 39.0002L25.6621 38.9985Z" fill="#282315"/>
<path d="M29.9735 22.8752C29.9139 22.8752 29.8527 22.8613 29.7963 22.8299L25.6801 20.6438C25.4805 20.5376 25.3983 20.2765 25.4966 20.0607C25.5948 19.8448 25.8364 19.7561 26.0361 19.8622L30.1522 22.0484C30.3519 22.1546 30.4341 22.4157 30.3358 22.6315C30.2666 22.7847 30.1233 22.8752 29.9735 22.8752Z" fill="#282315"/>
<path d="M31.5614 19.3855C31.5018 19.3855 31.4406 19.3715 31.3842 19.3402L27.268 17.154C27.0683 17.0478 26.9862 16.7867 27.0845 16.5709C27.1827 16.3551 27.4242 16.2663 27.6239 16.3725L31.7401 18.5587C31.9398 18.6648 32.0219 18.9259 31.9237 19.1418C31.8545 19.2949 31.7111 19.3855 31.5614 19.3855Z" fill="#282315"/>
<path d="M33.1473 15.8952C33.0877 15.8952 33.0265 15.8813 32.9702 15.85L28.854 13.6638C28.6543 13.5576 28.5722 13.2965 28.6704 13.0807C28.7686 12.8648 29.0102 12.7761 29.2099 12.8823L33.3261 15.0684C33.5258 15.1746 33.6079 15.4357 33.5097 15.6515C33.4404 15.8047 33.2971 15.8952 33.1473 15.8952Z" fill="#282315"/>
<path d="M34.7333 12.4055C34.6737 12.4055 34.6125 12.3916 34.5561 12.3602L30.4399 10.174C30.2402 10.0679 30.1581 9.80677 30.2563 9.59094C30.3546 9.3751 30.5961 9.28633 30.7958 9.39251L34.912 11.5787C35.1117 11.6849 35.1938 11.946 35.0956 12.1618C35.0264 12.315 34.883 12.4055 34.7333 12.4055Z" fill="#282315"/>
</svg>
