<svg width="40" height="40" viewBox="0 0 40 40" fill="none" xmlns="http://www.w3.org/2000/svg">
<circle cx="20" cy="20" r="19.7" stroke="#9C9792" stroke-width="0.6"/>
<path d="M14.3403 13.3402H16.3442C16.3895 13.3404 16.429 13.378 16.4292 13.4242C16.4292 13.473 16.393 13.509 16.3442 13.5092H14.3403C13.7894 13.5092 13.3289 13.9213 13.2749 14.4681L11.8374 28.1302V28.1312C11.8105 28.4067 11.8977 28.6831 12.0796 28.892L12.0815 28.8939C12.2705 29.103 12.5344 29.2181 12.811 29.2181H27.189C27.4661 29.2181 27.7345 29.096 27.9175 28.8929L27.9185 28.8939C28.084 28.7107 28.1726 28.479 28.1694 28.2338L28.1626 28.1283L26.7251 14.4681V14.4672C26.6652 13.9228 26.2124 13.5092 25.6597 13.5092H25.1558C25.1104 13.5089 25.0718 13.4705 25.0718 13.4242C25.072 13.3757 25.1073 13.3404 25.1558 13.3402H25.6597C26.2931 13.3402 26.8246 13.8145 26.8911 14.4476L28.3276 28.1097L28.3286 28.1107C28.364 28.434 28.2578 28.7587 28.0396 29.0023C27.8222 29.245 27.5132 29.3812 27.1831 29.3812H12.8169C12.5341 29.3812 12.2574 29.2732 12.0464 29.0863L11.9595 29.0013C11.7418 28.7578 11.6361 28.4336 11.6714 28.1107L11.6724 28.1097L13.1089 14.4476C13.1754 13.8145 13.7069 13.3402 14.3403 13.3402Z" fill="#9C9792" stroke="#9C9792" stroke-width="0.3"/>
<path d="M17.856 13.3402H23.6626C23.7079 13.3403 23.7473 13.3779 23.7476 13.4242C23.7476 13.473 23.7114 13.5091 23.6626 13.5092H17.856C17.8106 13.5089 17.772 13.4705 17.772 13.4242C17.7722 13.3757 17.8074 13.3404 17.856 13.3402Z" fill="#9C9792" stroke="#9C9792" stroke-width="0.3"/>
<path d="M19.9976 7.52844C22.0561 7.52844 23.7357 9.20719 23.7358 11.2657V14.9132C23.7358 14.9568 23.7005 14.9931 23.6567 14.9962C23.6137 14.9931 23.5776 14.9577 23.5776 14.9132V11.2657C23.5775 9.29344 21.9757 7.69153 20.0034 7.69153C18.0311 7.69158 16.4293 9.29347 16.4292 11.2657V14.9132C16.4292 14.9587 16.3907 14.9982 16.3442 14.9982C16.2956 14.998 16.2603 14.9619 16.2603 14.9132V11.2657C16.2604 9.20168 17.9389 7.52856 19.9976 7.52844Z" fill="#9C9792" stroke="#9C9792" stroke-width="0.3"/>
<path d="M16.1699 20.9664H23.8329" stroke="#9C9792" stroke-width="0.4" stroke-linecap="round"/>
<path d="M20.0034 17.1349L20.0034 24.7979" stroke="#9C9792" stroke-width="0.4" stroke-linecap="round"/>
</svg>
