<svg width="39" height="39" viewBox="0 0 39 39" fill="none" xmlns="http://www.w3.org/2000/svg">
<path d="M16.5409 38.9999C11.7257 38.9999 7.04686 38.4555 3.0106 37.4251C1.23737 36.9725 0 35.4794 0 33.7926V21.3471C0 19.6619 1.23737 18.1672 3.0106 17.7113C4.22037 17.404 5.49275 17.1384 6.79091 16.923C7.04134 16.8812 7.28074 17.0315 7.32678 17.2587C7.37281 17.4858 7.20709 17.7029 6.95666 17.7447C5.68428 17.9568 4.44135 18.2156 3.2592 18.5162C1.88186 18.8703 0.92068 20.0344 0.92068 21.3471V33.7926C0.92068 35.107 1.8837 36.271 3.26104 36.6217C7.21628 37.6321 11.8086 38.1649 16.5409 38.1649C21.2732 38.1649 25.8693 37.6305 29.8245 36.6217C31.2018 36.271 32.1649 35.107 32.1649 33.7926V21.3471C32.1649 20.0327 31.2018 18.8686 29.8245 18.5146C29.1671 18.3492 28.5669 18.2106 27.9923 18.0937C27.7438 18.0436 27.5891 17.8198 27.6443 17.5944C27.6995 17.3689 27.9463 17.2286 28.1949 17.2787C28.7841 17.399 29.3991 17.5392 30.073 17.7096C31.8481 18.1655 33.0855 19.6603 33.0855 21.3454V33.7909C33.0855 35.4777 31.8463 36.9725 30.0749 37.4234C26.0405 38.4538 21.3597 38.9983 16.5427 38.9983L16.5409 38.9999Z" fill="#282315"/>
<path d="M16.5432 35.3724C12.7371 35.3724 8.9789 35.0034 5.67734 34.3036C4.68853 34.0948 3.99805 33.3015 3.99805 32.3746V29.6724C3.99805 29.4419 4.20428 29.2549 4.45839 29.2549C4.71249 29.2549 4.91873 29.4419 4.91873 29.6724V32.3746C4.91873 32.9107 5.31646 33.37 5.88544 33.4902C9.11887 34.175 12.8052 34.5374 16.5414 34.5374C20.8152 34.5374 24.9509 34.0714 28.5047 33.1896C28.7496 33.1278 29.0037 33.2598 29.07 33.4819C29.1363 33.704 28.9926 33.9345 28.7477 33.9946C25.1166 34.8948 20.8962 35.3708 16.5414 35.3708L16.5432 35.3724Z" fill="#282315"/>
<path d="M16.9599 23.6221C12.9649 23.6221 9.71484 20.4522 9.71484 16.5559C9.71484 12.6596 12.9649 9.48975 16.9599 9.48975C20.9549 9.48975 24.2051 12.6596 24.2051 16.5559C24.2051 20.4522 20.9549 23.6221 16.9599 23.6221ZM16.9599 10.3248C13.4376 10.3248 10.571 13.1205 10.571 16.5559C10.571 19.9913 13.4376 22.787 16.9599 22.787C20.4823 22.787 23.3489 19.9913 23.3489 16.5559C23.3489 13.1205 20.4823 10.3248 16.9599 10.3248Z" fill="#282315"/>
<path d="M17.5048 20.6007C15.0466 20.6007 13.0469 18.787 13.0469 16.5557C13.0469 16.3252 13.2531 16.1382 13.5072 16.1382C13.7613 16.1382 13.9676 16.3252 13.9676 16.5557C13.9676 18.326 15.5548 19.7656 17.5048 19.7656C17.7589 19.7656 17.9651 19.9527 17.9651 20.1832C17.9651 20.4136 17.7589 20.6007 17.5048 20.6007Z" fill="#282315"/>
<path d="M32.1396 15.6887C28.892 15.6887 26.25 13.0951 26.25 9.90687C26.25 6.71866 28.892 4.125 32.1396 4.125C35.3873 4.125 38.0293 6.71866 38.0293 9.90687C38.0293 13.0951 35.3873 15.6887 32.1396 15.6887ZM32.1396 4.96005C29.3615 4.96005 27.1006 7.1796 27.1006 9.90687C27.1006 12.6341 29.3615 14.8537 32.1396 14.8537C34.9177 14.8537 37.1787 12.6341 37.1787 9.90687C37.1787 7.1796 34.9177 4.96005 32.1396 4.96005Z" fill="#282315"/>
<path d="M32.6259 12.6658C30.9484 12.6658 29.584 11.4282 29.584 9.90678C29.584 9.67631 29.7902 9.48926 30.0443 9.48926C30.2984 9.48926 30.5047 9.67631 30.5047 9.90678C30.5047 10.969 31.4566 11.8307 32.6259 11.8307C32.88 11.8307 33.0863 12.0178 33.0863 12.2483C33.0863 12.4787 32.88 12.6658 32.6259 12.6658Z" fill="#282315"/>
<path d="M19.6885 7.52211C17.6058 7.52211 15.9121 5.83531 15.9121 3.76105C15.9121 1.6868 17.6058 0 19.6885 0C21.7712 0 23.4648 1.6868 23.4648 3.76105C23.4648 5.83531 21.7712 7.52211 19.6885 7.52211ZM19.6885 0.836719C18.0686 0.836719 16.7506 2.14942 16.7506 3.76273C16.7506 5.37604 18.0686 6.68872 19.6885 6.68872C21.3084 6.68872 22.6264 5.37604 22.6264 3.76273C22.6264 2.14942 21.3084 0.836719 19.6885 0.836719Z" fill="#282315"/>
</svg>
